<?xml version="1.0" encoding="utf-8"?>
<!-- Generator: Adobe Illustrator 19.2.1, SVG Export Plug-In . SVG Version: 6.00 Build 0)  -->
<svg version="1.1" id="Layer_1" xmlns="http://www.w3.org/2000/svg" xmlns:xlink="http://www.w3.org/1999/xlink" x="0px" y="0px"
	 viewBox="0 0 359.5 85" style="enable-background:new 0 0 359.5 85;" xml:space="preserve">
<style type="text/css">
	.st0{fill:#12DEF6;}
	.st1{fill:#FFFFFF;}
	.st2{display:none;}
	.st3{display:inline;}
	.st4{opacity:0.4;fill:#E94964;enable-background:new    ;}
</style>
<g id="body">
	<g>
		<g>
			<path class="st0" d="M0,64.2V21h8.5v5.4c2.3-2.6,7.4-6.6,14.4-6.6c6.5,0,11,2.7,13.5,6.9c3.8-3.8,8.8-6.9,15.1-6.9
				c11.4,0,16.4,8.5,16.4,17.4v27h-9.6V37.5c0-5.6-3.3-9.1-8.5-9.1c-4.8,0-8.5,3.1-10.7,5.8c0.1,1,0.2,2,0.2,3v27h-9.6V37.5
				c0-5.6-3.3-9.1-8.5-9.1S12,32.2,9.8,35.1v29.2L0,64.2L0,64.2z"/>
			<path class="st0" d="M110.5,21h10.1l-20.2,49C95.7,81.2,89.6,85,83,85c-1.9,0-3.8-0.3-5.7-0.7v-8.2c1.4,0.4,3,0.6,4.4,0.6
				c4.7,0,8.2-3.3,10.7-10.1l0.9-2.2L72.8,20.8h10.3l14.6,32.6L110.5,21z"/>
		</g>
		<g>
			<path class="st1" d="M148.7,0c7.5,0,15,1.8,20.4,4.9v12.6c-5.3-3.8-12.4-5.7-19.4-5.6c-6.8,0.1-10.3,2-10.3,5.8
				c0,10.9,34.5,6.8,34.5,29.2c0,14.1-11.3,18.5-24.6,18.5c-8.7,0-16.8-2.1-23.3-5.7V46.8c7.2,4.8,15.1,6.7,22.3,6.7
				c7.3,0,11.8-1.5,11.8-6c0-11.8-34.5-7.4-34.5-29.7C125.7,5.7,136.3,0,148.7,0z"/>
			<path class="st1" d="M196,5.5v15.6h13.7v10.5H196v16.9c0,4.5,2.2,6.5,6.9,6.5c2.9,0,5.3-0.5,7.8-1.4v10.1
				c-3.3,1.2-7.3,1.9-11.6,1.9c-8.4,0-15.6-3.9-15.6-14.6V31.7h-7.3V21.2h7.3V8.6L196,5.5z"/>
			<path class="st1" d="M239.3,19.8c12.6,0,23.8,7.7,23.8,22.9s-11.2,22.9-23.8,22.9c-12.5,0-23.8-7.7-23.8-22.9
				S226.8,19.8,239.3,19.8z M239.3,30.9c-7.1,0-11.1,5-11.1,11.7s4,11.7,11.1,11.7c7.2,0,11.2-5,11.2-11.7S246.5,30.9,239.3,30.9z"
				/>
			<path class="st1" d="M293.3,19.7c4.8,0,9.5,1.1,13.3,3.1v11c-3.1-2-7.4-3.2-11.5-3.2c-6.8,0-13.4,3.3-13.4,12.1
				c0,8.3,6.5,12.1,13.2,12.1c4.6,0,9-1.3,12.1-3.1v11.1c-4.2,1.8-9.1,2.9-14.6,2.9c-11.8,0-23.6-6.8-23.6-22.2
				C268.9,26.7,281.4,19.7,293.3,19.7z"/>
			<path class="st1" d="M345.4,64.2L333,47.1h-5v17.1h-12.5v-63H328v35.9h5.2l11-16.1h14l-14.8,21.3l16.1,21.9L345.4,64.2
				L345.4,64.2z"/>
		</g>
	</g>
</g>
<g id="guids" class="st2">
	<g class="st3">
		<rect x="-413.3" y="-3981.3" class="st4" width="80" height="700"/>
		<rect x="-313.3" y="-3981.3" class="st4" width="80" height="700"/>
		<rect x="-213.3" y="-3981.3" class="st4" width="80" height="700"/>
		<rect x="-113.3" y="-3981.3" class="st4" width="80" height="700"/>
		<rect x="-13.3" y="-3981.3" class="st4" width="80" height="700"/>
		<rect x="86.7" y="-3981.3" class="st4" width="80" height="700"/>
		<rect x="186.7" y="-3981.3" class="st4" width="80" height="700"/>
		<rect x="286.7" y="-3981.3" class="st4" width="80" height="700"/>
		<rect x="386.7" y="-3981.3" class="st4" width="80" height="700"/>
		<rect x="486.7" y="-3981.3" class="st4" width="80" height="700"/>
		<rect x="586.7" y="-3981.3" class="st4" width="80" height="700"/>
		<rect x="686.7" y="-3981.3" class="st4" width="80" height="700"/>
	</g>
	<g class="st3">
		<rect x="-413.3" y="-2979.5" class="st4" width="80" height="700"/>
		<rect x="-313.3" y="-2979.5" class="st4" width="80" height="700"/>
		<rect x="-213.3" y="-2979.5" class="st4" width="80" height="700"/>
		<rect x="-113.3" y="-2979.5" class="st4" width="80" height="700"/>
		<rect x="-13.3" y="-2979.5" class="st4" width="80" height="700"/>
		<rect x="86.7" y="-2979.5" class="st4" width="80" height="700"/>
		<rect x="186.7" y="-2979.5" class="st4" width="80" height="700"/>
		<rect x="286.7" y="-2979.5" class="st4" width="80" height="700"/>
		<rect x="386.7" y="-2979.5" class="st4" width="80" height="700"/>
		<rect x="486.7" y="-2979.5" class="st4" width="80" height="700"/>
		<rect x="586.7" y="-2979.5" class="st4" width="80" height="700"/>
		<rect x="686.7" y="-2979.5" class="st4" width="80" height="700"/>
	</g>
</g>
</svg>
